<svg xmlns="http://www.w3.org/2000/svg" height="24" width="24"><path d="M1.05.97h21.9v21.901H1.05Z" fill="none" style="opacity:.995;stroke-width:2.3046"/><path d="M7.438 11.465v1.825h9.126v-1.825c0-1.696 1.166-3.111 2.736-3.522V6.902a2.746 2.746 0 0 0-2.738-2.738H7.436A2.745 2.745 0 0 0 4.7 6.902v1.041a3.65 3.65 0 0 1 2.738 3.522z" style="opacity:.995;stroke-width:2.3046;fill:#666"/><path d="M20.212 9.64a1.83 1.83 0 0 0-1.825 1.825v3.65H5.613v-3.65A1.83 1.83 0 0 0 3.788 9.64a1.83 1.83 0 0 0-1.826 1.825v4.563A2.744 2.744 0 0 0 4.7 18.766v.912c0 .503.41.913.913.913a.915.915 0 0 0 .912-.913v-.912h10.95v.912c0 .503.412.913.912.913a.915.915 0 0 0 .913-.913v-.912a2.744 2.744 0 0 0 2.738-2.738v-4.563a1.83 1.83 0 0 0-1.826-1.825Z" style="opacity:.995;stroke-width:2.305;stroke-miterlimit:4;stroke-dasharray:none;fill:#4d4d4d"/></svg>